<svg width="31" height="31" viewBox="0 0 31 31" fill="none" xmlns="http://www.w3.org/2000/svg">
<circle cx="15.5" cy="15.5" r="15" stroke="#FF0000"/>
<path d="M17.04 18.66H14.78V17.44C14.78 16.9067 14.84 16.5133 14.96 16.26C15.0933 15.9933 15.3733 15.6467 15.8 15.22L17.26 13.76C17.5667 13.4267 17.72 13.0133 17.72 12.52C17.72 12.0267 17.56 11.62 17.24 11.3C16.92 10.9667 16.5067 10.8 16 10.8C15.4933 10.8 15.0667 10.96 14.72 11.28C14.3867 11.5867 14.1933 12 14.14 12.52H11.72C11.8533 11.3333 12.3133 10.4067 13.1 9.74C13.9 9.06 14.8933 8.72 16.08 8.72C17.2667 8.72 18.2333 9.04667 18.98 9.7C19.7267 10.34 20.1 11.24 20.1 12.4C20.1 13.2 19.88 13.8667 19.44 14.4C19.1867 14.72 18.9933 14.9467 18.86 15.08C18.7267 15.2133 18.5467 15.3867 18.32 15.6C18.1067 15.8 17.92 15.98 17.76 16.14C17.6133 16.2867 17.4933 16.4133 17.4 16.52C17.16 16.8133 17.04 17.2267 17.04 17.76V18.66ZM15.94 23.1C15.5267 23.1 15.1667 22.96 14.86 22.68C14.5533 22.3867 14.4 22.04 14.4 21.64C14.4 21.2267 14.5467 20.8733 14.84 20.58C15.1467 20.2867 15.5067 20.14 15.92 20.14C16.3467 20.14 16.7133 20.2867 17.02 20.58C17.3267 20.86 17.48 21.2067 17.48 21.62C17.48 22.02 17.3267 22.3667 17.02 22.66C16.7267 22.9533 16.3667 23.1 15.94 23.1Z" fill="#FF0000"/>
</svg>
