<svg width="143" height="143" viewBox="0 0 143 143" fill="none" xmlns="http://www.w3.org/2000/svg">
<circle cx="71.5" cy="71.5" r="68" stroke="#FF5700" stroke-width="7"/>
<path fill-rule="evenodd" clip-rule="evenodd" d="M106.975 52.5251C108.342 53.892 108.342 56.108 106.975 57.4749L76.8891 87.5607C74.7412 89.7085 71.2588 89.7085 69.1109 87.5607L54.5 72.9497L40.4749 86.9749C39.108 88.3417 36.892 88.3417 35.5251 86.9749C34.1583 85.608 34.1583 83.392 35.5251 82.0251L50.6109 66.9393C52.7588 64.7915 56.2412 64.7915 58.3891 66.9393L73 81.5503L102.025 52.5251C103.392 51.1583 105.608 51.1583 106.975 52.5251Z" fill="#FF5700"/>
<path fill-rule="evenodd" clip-rule="evenodd" d="M89.5 54.5C89.5 52.567 91.067 51 93 51H103.265C106.002 51 108.323 53.0126 108.71 55.7222L109.965 64.505C110.238 66.4186 108.909 68.1915 106.995 68.4648C105.081 68.7382 103.309 67.4085 103.035 65.495L101.964 58H93C91.067 58 89.5 56.433 89.5 54.5Z" fill="#FF5700"/>
</svg>
