<svg width="311" height="49" viewBox="0 0 311 49" fill="none" xmlns="http://www.w3.org/2000/svg">
<path d="M23.0751 2.76427C23.8384 0.449179 27.1621 0.449184 27.9254 2.76427L32.0841 15.3768C32.4255 16.4121 33.4046 17.113 34.5093 17.113H47.967C50.4373 17.113 51.4643 20.228 49.4659 21.6588L38.5784 29.4537C37.6847 30.0936 37.3107 31.2278 37.652 32.2632L41.8107 44.8757C42.574 47.1907 39.8852 49.1159 37.8866 47.6851L26.9991 39.8901C26.1054 39.2502 24.8951 39.2502 24.0014 39.8901L13.1139 47.6851C11.1154 49.1159 8.42643 47.1907 9.18978 44.8757L13.3485 32.2632C13.6898 31.2278 13.3158 30.0936 12.4221 29.4537L1.53455 21.6588C-0.46392 20.228 0.563163 17.113 3.0334 17.113H16.4912C17.5959 17.113 18.575 16.4121 18.9164 15.3768L23.0751 2.76427Z" fill="url(#paint0_linear_53_492)"/>
<path d="M89.0751 2.76427C89.8384 0.449179 93.1621 0.449184 93.9254 2.76427L98.0841 15.3768C98.4255 16.4121 99.4046 17.113 100.509 17.113H113.967C116.437 17.113 117.464 20.228 115.466 21.6588L104.578 29.4537C103.685 30.0936 103.311 31.2278 103.652 32.2632L107.811 44.8757C108.574 47.1907 105.885 49.1159 103.887 47.6851L92.9991 39.8901C92.1054 39.2502 90.8951 39.2502 90.0014 39.8901L79.1139 47.6851C77.1154 49.1159 74.4264 47.1907 75.1898 44.8757L79.3485 32.2632C79.6898 31.2278 79.3158 30.0936 78.4221 29.4537L67.5345 21.6588C65.5361 20.228 66.5632 17.113 69.0334 17.113H82.4912C83.5959 17.113 84.575 16.4121 84.9164 15.3768L89.0751 2.76427Z" fill="url(#paint1_linear_53_492)"/>
<path d="M155.075 2.76427C155.838 0.449179 159.162 0.449184 159.925 2.76427L164.084 15.3768C164.426 16.4121 165.405 17.113 166.509 17.113H179.967C182.437 17.113 183.464 20.228 181.466 21.6588L170.578 29.4537C169.685 30.0936 169.311 31.2278 169.652 32.2632L173.811 44.8757C174.574 47.1907 171.885 49.1159 169.887 47.6851L158.999 39.8901C158.105 39.2502 156.895 39.2502 156.001 39.8901L145.114 47.6851C143.115 49.1159 140.426 47.1907 141.19 44.8757L145.348 32.2632C145.69 31.2278 145.316 30.0936 144.422 29.4537L133.535 21.6588C131.536 20.228 132.563 17.113 135.033 17.113H148.491C149.596 17.113 150.575 16.4121 150.916 15.3768L155.075 2.76427Z" fill="url(#paint2_linear_53_492)"/>
<path d="M221.075 2.76427C221.838 0.449179 225.162 0.449184 225.925 2.76427L230.084 15.3768C230.426 16.4121 231.405 17.113 232.509 17.113H245.967C248.437 17.113 249.464 20.228 247.466 21.6588L236.578 29.4537C235.685 30.0936 235.311 31.2278 235.652 32.2632L239.811 44.8757C240.574 47.1907 237.885 49.1159 235.887 47.6851L224.999 39.8901C224.105 39.2502 222.895 39.2502 222.001 39.8901L211.114 47.6851C209.115 49.1159 206.426 47.1907 207.19 44.8757L211.348 32.2632C211.69 31.2278 211.316 30.0936 210.422 29.4537L199.535 21.6588C197.536 20.228 198.563 17.113 201.033 17.113H214.491C215.596 17.113 216.575 16.4121 216.916 15.3768L221.075 2.76427Z" fill="url(#paint3_linear_53_492)"/>
<g clip-path="url(#clip0_53_492)">
<path d="M285.148 1.73962C285.888 -0.579872 289.112 -0.579872 289.852 1.73962L293.886 14.3761C294.217 15.4134 295.167 16.1156 296.239 16.1156H309.292C311.688 16.1156 312.685 19.2366 310.746 20.6701L300.186 28.4798C299.319 29.1209 298.956 30.2572 299.287 31.2946L303.321 43.9311C304.061 46.2505 301.453 48.1794 299.515 46.7459L288.954 38.936C288.087 38.2949 286.913 38.2949 286.046 38.936L275.486 46.7459C273.547 48.1794 270.939 46.2505 271.679 43.9311L275.713 31.2946C276.044 30.2572 275.681 29.1209 274.814 28.4798L264.254 20.6701C262.315 19.2366 263.312 16.1156 265.708 16.1156H278.761C279.833 16.1156 280.783 15.4134 281.114 14.3761L285.148 1.73962Z" fill="#EBEBEB"/>
<path d="M289.43 1.6842L293.911 14.9498C294.157 15.6776 294.071 16.4829 293.677 17.1358L275.783 46.8069C274.288 49.2861 270.63 47.56 271.421 44.7488L275.115 31.6266C275.394 30.6358 275.067 29.5675 274.29 28.9294L264.158 20.6113C262.353 19.1301 263.356 16.1021 265.65 16.1021H278.651C279.699 16.1021 280.627 15.3964 280.95 14.3547L284.854 1.74731C285.565 -0.550264 288.661 -0.592964 289.43 1.6842Z" fill="url(#paint4_linear_53_492)"/>
</g>
<defs>
<linearGradient id="paint0_linear_53_492" x1="-6.37476" y1="58.2297" x2="69.137" y2="34.5257" gradientUnits="userSpaceOnUse">
<stop stop-color="#FF5700"/>
<stop offset="0.411458" stop-color="#FFB43A"/>
<stop offset="1" stop-color="#FFCC49"/>
</linearGradient>
<linearGradient id="paint1_linear_53_492" x1="59.6252" y1="58.2297" x2="135.137" y2="34.5257" gradientUnits="userSpaceOnUse">
<stop stop-color="#FF5700"/>
<stop offset="0.411458" stop-color="#FFB43A"/>
<stop offset="1" stop-color="#FFCC49"/>
</linearGradient>
<linearGradient id="paint2_linear_53_492" x1="125.625" y1="58.2297" x2="201.137" y2="34.5257" gradientUnits="userSpaceOnUse">
<stop stop-color="#FF5700"/>
<stop offset="0.411458" stop-color="#FFB43A"/>
<stop offset="1" stop-color="#FFCC49"/>
</linearGradient>
<linearGradient id="paint3_linear_53_492" x1="191.625" y1="58.2297" x2="267.137" y2="34.5257" gradientUnits="userSpaceOnUse">
<stop stop-color="#FF5700"/>
<stop offset="0.411458" stop-color="#FFB43A"/>
<stop offset="1" stop-color="#FFCC49"/>
</linearGradient>
<linearGradient id="paint4_linear_53_492" x1="258.665" y1="62.1715" x2="303.831" y2="54.7983" gradientUnits="userSpaceOnUse">
<stop stop-color="#FF5700"/>
<stop offset="0.411458" stop-color="#FFB43A"/>
<stop offset="1" stop-color="#FFCC49"/>
</linearGradient>
<clipPath id="clip0_53_492">
<rect width="47" height="48" fill="white" transform="translate(264)"/>
</clipPath>
</defs>
</svg>
