<svg width="143" height="146" viewBox="0 0 143 146" fill="none" xmlns="http://www.w3.org/2000/svg">
<g filter="url(#filter0_d_37_1838)">
<path d="M27.5311 96.5896C27.6922 96.1543 28.3078 96.1543 28.4689 96.5896L32.4862 107.446C32.8407 108.404 33.596 109.159 34.554 109.514L45.4104 113.531C45.8457 113.692 45.8457 114.308 45.4104 114.469L34.554 118.486C33.596 118.841 32.8407 119.596 32.4862 120.554L28.4689 131.41C28.3078 131.846 27.6922 131.846 27.5311 131.41L23.5138 120.554C23.1593 119.596 22.404 118.841 21.446 118.486L10.5896 114.469C10.1543 114.308 10.1543 113.692 10.5896 113.531L21.446 109.514C22.404 109.159 23.1593 108.404 23.5138 107.446L27.5311 96.5896Z" stroke="#FFCC49" stroke-width="3" shape-rendering="crispEdges"/>
</g>
<path d="M71.4996 143C70.4869 143.005 69.4832 142.81 68.5458 142.426C67.6084 142.043 66.7558 141.478 66.0366 140.765L29.3035 104.032C23.5037 98.2645 18.9127 91.3977 15.7993 83.8338C12.6859 76.2699 11.1126 68.161 11.1715 59.9816C11.1465 52.0624 12.7018 44.2178 15.7461 36.907C18.7905 29.5963 23.2628 22.9664 28.9013 17.4056C40.289 6.2788 55.5784 0.0493164 71.4996 0.0493164C87.4209 0.0493164 102.71 6.2788 114.098 17.4056C119.736 22.9664 124.209 29.5963 127.253 36.907C130.298 44.2178 131.853 52.0624 131.828 59.9816C131.887 68.161 130.313 76.2699 127.2 83.8338C124.087 91.3977 119.496 98.2645 113.696 104.032L76.9627 140.698C76.249 141.424 75.3989 142 74.4612 142.395C73.5236 142.79 72.5171 142.996 71.4996 143ZM71.4996 6.70294C57.3235 6.67029 43.7065 12.2303 33.6046 22.176C28.6001 27.117 24.6312 33.0065 21.9302 39.4999C19.2293 45.9932 17.8505 52.9601 17.8746 59.9928C17.821 67.288 19.2231 74.5206 21.9989 81.2672C24.7747 88.0139 28.8684 94.1391 34.0403 99.2843L70.7623 135.95C70.8571 136.049 70.9708 136.127 71.0965 136.18C71.2222 136.234 71.3575 136.261 71.4941 136.261C71.6307 136.261 71.7659 136.234 71.8916 136.18C72.0173 136.127 72.131 136.049 72.2258 135.95L108.959 99.2843C114.131 94.1391 118.225 88.0139 121 81.2672C123.776 74.5206 125.178 67.288 125.125 59.9928C125.149 52.9601 123.77 45.9932 121.069 39.4999C118.368 33.0065 114.399 27.117 109.395 22.176C99.2928 12.2303 85.6758 6.67029 71.4996 6.70294Z" fill="#FF5700"/>
<path d="M71.4995 90.9502C64.4582 90.9469 57.6357 88.5029 52.1939 84.0343C46.7521 79.5658 43.0276 73.3491 41.6547 66.4428C40.2817 59.5366 41.3452 52.368 44.664 46.1579C47.9829 39.9477 53.3518 35.08 59.8565 32.3838C66.3612 29.6875 73.5994 29.3295 80.3384 31.3706C87.0775 33.4117 92.9006 37.7257 96.8161 43.578C100.732 49.4303 102.497 56.4589 101.813 63.4669C101.128 70.4749 98.0354 77.0289 93.0613 82.0127C90.2326 84.8486 86.8718 87.0979 83.1717 88.6316C79.4715 90.1654 75.5049 90.9533 71.4995 90.9502ZM71.4995 36.7778C66.0057 36.7865 60.6847 38.6995 56.443 42.1909C52.2012 45.6823 49.301 50.5362 48.2362 55.9259C47.1715 61.3156 48.0081 66.9078 50.6035 71.7499C53.1989 76.592 57.3927 80.3847 62.4705 82.4819C67.5483 84.5791 73.1961 84.8512 78.452 83.2517C83.7079 81.6523 88.2468 78.2803 91.2956 73.7101C94.3445 69.1399 95.7147 63.654 95.1729 58.1869C94.6312 52.7199 92.2109 47.6097 88.3244 43.7267C86.115 41.5185 83.4916 39.768 80.6044 38.5756C77.7173 37.3831 74.6232 36.7722 71.4995 36.7778Z" fill="#FF5700"/>
<defs>
<filter id="filter0_d_37_1838" x="0.762695" y="90.7632" width="54.4746" height="54.4736" filterUnits="userSpaceOnUse" color-interpolation-filters="sRGB">
<feFlood flood-opacity="0" result="BackgroundImageFix"/>
<feColorMatrix in="SourceAlpha" type="matrix" values="0 0 0 0 0 0 0 0 0 0 0 0 0 0 0 0 0 0 127 0" result="hardAlpha"/>
<feOffset dy="4"/>
<feGaussianBlur stdDeviation="4"/>
<feComposite in2="hardAlpha" operator="out"/>
<feColorMatrix type="matrix" values="0 0 0 0 0 0 0 0 0 0 0 0 0 0 0 0 0 0 0.49 0"/>
<feBlend mode="normal" in2="BackgroundImageFix" result="effect1_dropShadow_37_1838"/>
<feBlend mode="normal" in="SourceGraphic" in2="effect1_dropShadow_37_1838" result="shape"/>
</filter>
</defs>
</svg>
