<svg width="36" height="37" viewBox="0 0 36 37" fill="none" xmlns="http://www.w3.org/2000/svg">
<path d="M18.0446 28.7816L25.6169 33.0474C25.8384 33.1728 26.0969 33.2177 26.3462 33.1784C26.6522 33.1239 26.9247 32.9493 27.1044 32.6924C27.2842 32.4355 27.3567 32.1171 27.3064 31.8064L25.9068 22.5597L32.0776 15.9204C32.2427 15.7425 32.3508 15.518 32.3878 15.2766C32.4387 14.9658 32.3667 14.6471 32.1872 14.3899C32.0078 14.1326 31.7355 13.9576 31.4295 13.9027L22.9044 12.4913L19.0841 4.19927C18.9939 3.99612 18.8477 3.82371 18.6631 3.70276C18.4786 3.58182 18.2635 3.51748 18.0437 3.51748C17.8239 3.51748 17.6088 3.58182 17.4242 3.70276C17.2396 3.82371 17.0935 3.99612 17.0032 4.19927L13.1848 12.4913L4.65974 13.9027C4.42496 13.942 4.2081 14.0545 4.03934 14.2246C3.81875 14.4485 3.69256 14.7505 3.6874 15.0669C3.68223 15.3832 3.79848 15.6893 4.01164 15.9204L10.1825 22.5578L8.78285 31.8064C8.74345 32.0662 8.78747 32.3319 8.9084 32.5644C8.97811 32.7019 9.07432 32.8238 9.19134 32.9228C9.30836 33.0219 9.4438 33.0961 9.58963 33.1412C9.73547 33.1862 9.88874 33.2011 10.0404 33.185C10.192 33.1689 10.3389 33.1221 10.4723 33.0474L18.0446 28.7816ZM11.9827 35.9468C9.88333 37.1316 7.25584 36.3211 6.11843 34.1368C5.6648 33.2647 5.49973 32.2679 5.64759 31.2935L6.80161 23.6697L1.72944 18.2134C0.930631 17.3461 0.494999 16.1984 0.514286 15.0121C0.533573 13.8257 1.00627 12.6932 1.83284 11.853C2.46549 11.215 3.2788 10.7929 4.15936 10.6457L11.0429 9.50581L14.1431 2.77671C15.1734 0.536167 17.7584 -0.410961 19.9132 0.661577C20.8032 1.10519 21.5196 1.85017 21.9461 2.77671L25.0463 9.50581L31.928 10.6457C34.2878 11.0351 35.8978 13.3411 35.5212 15.7932C35.3836 16.7005 34.978 17.5443 34.3579 18.2134L29.2876 23.6697L30.4398 31.2935C30.8127 33.7474 29.199 36.0497 26.8392 36.4353C25.9002 36.589 24.9376 36.4176 24.1065 35.9487L18.0446 32.5308L11.9827 35.9468Z" fill="white"/>
</svg>
