<svg width="397" height="81" viewBox="0 0 397 81" fill="none" xmlns="http://www.w3.org/2000/svg">
<path d="M20.9473 80.7985C27.9283 83.1585 45.3344 64.1258 54.6425 58.416C102.484 34.3811 156.054 18.9887 211.762 13.2704C257.808 8.72582 304.376 17.1003 343.844 37.0232C346.171 38.4697 323.459 57.0456 325.786 59.8625C328.113 62.6793 393.269 72.7286 396.713 70.9015C400.157 69.0743 371.488 11.4432 368.789 12.3568C362.76 17.6681 357.31 23.3997 352.5 29.4863C345.115 24.0692 336.921 19.4391 328.113 15.7066C311.265 8.09346 299.63 -0.509346 197.242 0.0235748C94.8532 0.556488 6.98526 53.772 1.12119 59.9386C-4.74289 66.1052 13.9663 78.5145 20.9473 80.7985ZM346.171 52.5539C349.615 49.7371 362.46 29.7146 365.531 30.7043C372.136 40.407 377.591 50.6043 381.82 61.1567C381.82 62.8316 342.634 55.6753 346.171 52.5539Z" fill="#FF5700"/>
</svg>
