<svg width="315" height="49" viewBox="0 0 315 49" fill="none" xmlns="http://www.w3.org/2000/svg">
<path d="M23.0751 2.76427C23.8384 0.449179 27.1621 0.449184 27.9254 2.76427L32.0841 15.3768C32.4255 16.4121 33.4046 17.113 34.5093 17.113H47.967C50.4373 17.113 51.4643 20.228 49.4659 21.6588L38.5784 29.4537C37.6847 30.0936 37.3107 31.2278 37.652 32.2632L41.8107 44.8757C42.574 47.1907 39.8852 49.1159 37.8866 47.6851L26.9991 39.8901C26.1054 39.2502 24.8951 39.2502 24.0014 39.8901L13.1139 47.6851C11.1154 49.1159 8.42643 47.1907 9.18978 44.8757L13.3485 32.2632C13.6898 31.2278 13.3158 30.0936 12.4221 29.4537L1.53455 21.6588C-0.46392 20.228 0.563163 17.113 3.0334 17.113H16.4912C17.5959 17.113 18.575 16.4121 18.9164 15.3768L23.0751 2.76427Z" fill="url(#paint0_linear_53_516)"/>
<path d="M89.0751 2.76427C89.8384 0.449179 93.1621 0.449184 93.9254 2.76427L98.0841 15.3768C98.4255 16.4121 99.4046 17.113 100.509 17.113H113.967C116.437 17.113 117.464 20.228 115.466 21.6588L104.578 29.4537C103.685 30.0936 103.311 31.2278 103.652 32.2632L107.811 44.8757C108.574 47.1907 105.885 49.1159 103.887 47.6851L92.9991 39.8901C92.1054 39.2502 90.8951 39.2502 90.0014 39.8901L79.1139 47.6851C77.1154 49.1159 74.4264 47.1907 75.1898 44.8757L79.3485 32.2632C79.6898 31.2278 79.3158 30.0936 78.4221 29.4537L67.5345 21.6588C65.5361 20.228 66.5632 17.113 69.0334 17.113H82.4912C83.5959 17.113 84.575 16.4121 84.9164 15.3768L89.0751 2.76427Z" fill="url(#paint1_linear_53_516)"/>
<path d="M155.075 2.76427C155.838 0.449179 159.162 0.449184 159.925 2.76427L164.084 15.3768C164.426 16.4121 165.405 17.113 166.509 17.113H179.967C182.437 17.113 183.464 20.228 181.466 21.6588L170.578 29.4537C169.685 30.0936 169.311 31.2278 169.652 32.2632L173.811 44.8757C174.574 47.1907 171.885 49.1159 169.887 47.6851L158.999 39.8901C158.105 39.2502 156.895 39.2502 156.001 39.8901L145.114 47.6851C143.115 49.1159 140.426 47.1907 141.19 44.8757L145.348 32.2632C145.69 31.2278 145.316 30.0936 144.422 29.4537L133.535 21.6588C131.536 20.228 132.563 17.113 135.033 17.113H148.491C149.596 17.113 150.575 16.4121 150.916 15.3768L155.075 2.76427Z" fill="url(#paint2_linear_53_516)"/>
<path d="M221.075 2.76427C221.838 0.449179 225.162 0.449184 225.925 2.76427L230.084 15.3768C230.426 16.4121 231.405 17.113 232.509 17.113H245.967C248.437 17.113 249.464 20.228 247.466 21.6588L236.578 29.4537C235.685 30.0936 235.311 31.2278 235.652 32.2632L239.811 44.8757C240.574 47.1907 237.885 49.1159 235.887 47.6851L224.999 39.8901C224.105 39.2502 222.895 39.2502 222.001 39.8901L211.114 47.6851C209.115 49.1159 206.426 47.1907 207.19 44.8757L211.348 32.2632C211.69 31.2278 211.316 30.0936 210.422 29.4537L199.535 21.6588C197.536 20.228 198.563 17.113 201.033 17.113H214.491C215.596 17.113 216.575 16.4121 216.916 15.3768L221.075 2.76427Z" fill="url(#paint3_linear_53_516)"/>
<path d="M287.075 2.76427C287.838 0.449179 291.162 0.449184 291.925 2.76427L296.084 15.3768C296.426 16.4121 297.405 17.113 298.509 17.113H311.967C314.437 17.113 315.464 20.228 313.466 21.6588L302.578 29.4537C301.685 30.0936 301.311 31.2278 301.652 32.2632L305.811 44.8757C306.574 47.1907 303.885 49.1159 301.887 47.6851L290.999 39.8901C290.105 39.2502 288.895 39.2502 288.001 39.8901L277.114 47.6851C275.115 49.1159 272.426 47.1907 273.19 44.8757L277.348 32.2632C277.69 31.2278 277.316 30.0936 276.422 29.4537L265.535 21.6588C263.536 20.228 264.563 17.113 267.033 17.113H280.491C281.596 17.113 282.575 16.4121 282.916 15.3768L287.075 2.76427Z" fill="url(#paint4_linear_53_516)"/>
<defs>
<linearGradient id="paint0_linear_53_516" x1="-6.37476" y1="58.2297" x2="69.137" y2="34.5257" gradientUnits="userSpaceOnUse">
<stop stop-color="#FF5700"/>
<stop offset="0.411458" stop-color="#FFB43A"/>
<stop offset="1" stop-color="#FFCC49"/>
</linearGradient>
<linearGradient id="paint1_linear_53_516" x1="59.6252" y1="58.2297" x2="135.137" y2="34.5257" gradientUnits="userSpaceOnUse">
<stop stop-color="#FF5700"/>
<stop offset="0.411458" stop-color="#FFB43A"/>
<stop offset="1" stop-color="#FFCC49"/>
</linearGradient>
<linearGradient id="paint2_linear_53_516" x1="125.625" y1="58.2297" x2="201.137" y2="34.5257" gradientUnits="userSpaceOnUse">
<stop stop-color="#FF5700"/>
<stop offset="0.411458" stop-color="#FFB43A"/>
<stop offset="1" stop-color="#FFCC49"/>
</linearGradient>
<linearGradient id="paint3_linear_53_516" x1="191.625" y1="58.2297" x2="267.137" y2="34.5257" gradientUnits="userSpaceOnUse">
<stop stop-color="#FF5700"/>
<stop offset="0.411458" stop-color="#FFB43A"/>
<stop offset="1" stop-color="#FFCC49"/>
</linearGradient>
<linearGradient id="paint4_linear_53_516" x1="257.625" y1="58.2297" x2="333.137" y2="34.5257" gradientUnits="userSpaceOnUse">
<stop stop-color="#FF5700"/>
<stop offset="0.411458" stop-color="#FFB43A"/>
<stop offset="1" stop-color="#FFCC49"/>
</linearGradient>
</defs>
</svg>
